<svg id="Capa_1" data-name="Capa 1" xmlns="http://www.w3.org/2000/svg" viewBox="0 0 380 380"><title>favicon</title><rect width="380" height="380" fill="#0b0b0c"/><path d="M311.1,516.32H256.57c-0.22-.43-0.41-0.87-0.67-1.27-9-13.89-17.85-27.81-26.9-41.64-6-9.22-11.85-18.6-19.16-26.92a11.31,11.31,0,0,0-7.31-4.14c-2.19-.26-4.41-0.27-6.6-0.47-1.08-.1-1.3.32-1.3,1.33q0.06,36.56.05,73.11H148.62c0-.61.08-1.22,0.08-1.83q0-92.49,0-185c0-.61-0.05-1.22-0.08-1.83h84c0.17,0.49.6,0.33,0.93,0.34a134.88,134.88,0,0,1,17.71,1.88c14,2.35,25,9.21,32.71,21.19,8,12.5,10.34,26.26,8.36,40.83-2.39,17.5-11.32,30.45-27,38.63a84.43,84.43,0,0,1-9.72,4.06c1.17,1,2.23,1.91,3.29,2.81,6.75,5.69,11.65,12.91,16.42,20.19,12.37,18.9,23.8,38.38,35.46,57.72A1.14,1.14,0,0,1,311.1,516.32ZM214.66,368.71c-7,0-12.72,0-18.43,0-1.3,0-1.62.36-1.62,1.63,0.05,9.21,0,18.42,0,27.62,0,1.44-.68,3.35.33,4.2,0.85,0.71,2.69.29,4.09,0.29,11.29,0,22.58.4,33.83-1,6.44-.82,10.86-4.6,12.47-10.76a24.37,24.37,0,0,0,.55-6.94c-0.23-8-5.1-13.49-13.09-14.44C226.38,368.49,219.85,369,214.66,368.71Z" transform="translate(-107 -232)" fill="#fff"/><path d="M360.49,380h31.92c0.07,0.16.16,0.32,0.22,0.48q24.64,63.42,49.3,126.83a73.76,73.76,0,0,0,3.41,8.36c-0.11.17,0.26,0.56-.27,0.54-0.31,0-.62,0-0.93,0h-35c-0.09-.2-0.18-0.4-0.26-0.61q-5.07-13.68-10.13-27.37a1.26,1.26,0,0,0-1.37-1q-20.88.05-41.75,0a1.06,1.06,0,0,0-1.21.86c-0.89,2.63-1.82,5.24-2.74,7.86l-7.18,20.3q-17.23,0-34.45,0c-0.32,0-1.06.43-.93-0.51a1.64,1.64,0,0,0,.56-1.11q19.92-52.69,39.82-105.39Q355,394.64,360.49,380Zm15.76,46.34-11,31.34c7.25,0,14.37,0,21.5,0,0.7,0,.69-0.23.47-0.78-0.51-1.31-1-2.65-1.43-4Z" transform="translate(-107 -232)" fill="#fff"/></svg>